<mxfile host="app.diagrams.net" agent="Mozilla/5.0 (Windows NT 10.0; Win64; x64) AppleWebKit/537.36 (KHTML, like Gecko) Chrome/131.0.0.0 Safari/537.36" version="25.0.3">
  <diagram name="Page-1" id="4bhsFalbv0jxJElesire">
    <mxGraphModel dx="1434" dy="738" grid="1" gridSize="10" guides="1" tooltips="1" connect="1" arrows="1" fold="1" page="1" pageScale="1" pageWidth="850" pageHeight="1100" math="0" shadow="0">
      <root>
        <mxCell id="0" />
        <mxCell id="1" parent="0" />
        <mxCell id="nZLA5djoOpEZxizHSnG1-1" value="Title" style="rounded=0;whiteSpace=wrap;html=1;" vertex="1" parent="1">
          <mxGeometry width="850" height="60" as="geometry" />
        </mxCell>
        <mxCell id="nZLA5djoOpEZxizHSnG1-2" value="My Account" style="rounded=0;whiteSpace=wrap;html=1;" vertex="1" parent="1">
          <mxGeometry x="770" y="40" width="80" height="20" as="geometry" />
        </mxCell>
        <mxCell id="nZLA5djoOpEZxizHSnG1-3" value="Light/Dark Mode" style="rounded=0;whiteSpace=wrap;html=1;" vertex="1" parent="1">
          <mxGeometry y="40" width="100" height="20" as="geometry" />
        </mxCell>
        <mxCell id="nZLA5djoOpEZxizHSnG1-13" value="" style="rounded=0;whiteSpace=wrap;html=1;" vertex="1" parent="1">
          <mxGeometry x="730" y="60" width="120" height="210" as="geometry" />
        </mxCell>
        <mxCell id="nZLA5djoOpEZxizHSnG1-14" value="Bass" style="text;html=1;align=center;verticalAlign=middle;whiteSpace=wrap;rounded=0;" vertex="1" parent="1">
          <mxGeometry x="730" y="70" width="60" height="20" as="geometry" />
        </mxCell>
        <mxCell id="nZLA5djoOpEZxizHSnG1-15" value="Treble" style="text;html=1;align=center;verticalAlign=middle;whiteSpace=wrap;rounded=0;" vertex="1" parent="1">
          <mxGeometry x="730" y="110" width="60" height="30" as="geometry" />
        </mxCell>
        <mxCell id="nZLA5djoOpEZxizHSnG1-16" value="Mid" style="text;html=1;align=center;verticalAlign=middle;whiteSpace=wrap;rounded=0;" vertex="1" parent="1">
          <mxGeometry x="730" y="160" width="60" height="30" as="geometry" />
        </mxCell>
        <mxCell id="nZLA5djoOpEZxizHSnG1-17" value="" style="endArrow=none;html=1;rounded=0;entryX=0.833;entryY=0.143;entryDx=0;entryDy=0;entryPerimeter=0;" edge="1" parent="1">
          <mxGeometry width="50" height="50" relative="1" as="geometry">
            <mxPoint x="787.52" y="79.5" as="sourcePoint" />
            <mxPoint x="832.48" y="79.52999999999997" as="targetPoint" />
          </mxGeometry>
        </mxCell>
        <mxCell id="nZLA5djoOpEZxizHSnG1-18" value="" style="endArrow=none;html=1;rounded=0;entryX=0.833;entryY=0.143;entryDx=0;entryDy=0;entryPerimeter=0;" edge="1" parent="1">
          <mxGeometry width="50" height="50" relative="1" as="geometry">
            <mxPoint x="790" y="124.5" as="sourcePoint" />
            <mxPoint x="834.96" y="124.52999999999997" as="targetPoint" />
          </mxGeometry>
        </mxCell>
        <mxCell id="nZLA5djoOpEZxizHSnG1-19" value="" style="endArrow=none;html=1;rounded=0;entryX=0.833;entryY=0.143;entryDx=0;entryDy=0;entryPerimeter=0;" edge="1" parent="1">
          <mxGeometry width="50" height="50" relative="1" as="geometry">
            <mxPoint x="790" y="174.5" as="sourcePoint" />
            <mxPoint x="834.96" y="174.52999999999997" as="targetPoint" />
          </mxGeometry>
        </mxCell>
        <mxCell id="nZLA5djoOpEZxizHSnG1-20" value="Dropdown" style="text;html=1;align=center;verticalAlign=middle;whiteSpace=wrap;rounded=0;" vertex="1" parent="1">
          <mxGeometry x="760" y="230" width="60" height="30" as="geometry" />
        </mxCell>
        <mxCell id="nZLA5djoOpEZxizHSnG1-22" value="" style="shape=image;verticalLabelPosition=bottom;labelBackgroundColor=default;verticalAlign=top;aspect=fixed;imageAspect=0;image=http://www.piano-keyboard-guide.com/wp-content/uploads/2015/05/piano_keyboard_template-1024x233.png;" vertex="1" parent="1">
          <mxGeometry x="163" y="170" width="524" height="119.23" as="geometry" />
        </mxCell>
        <mxCell id="nZLA5djoOpEZxizHSnG1-23" value="" style="rounded=0;whiteSpace=wrap;html=1;" vertex="1" parent="1">
          <mxGeometry y="60" width="120" height="220" as="geometry" />
        </mxCell>
        <mxCell id="nZLA5djoOpEZxizHSnG1-24" value="Dropdown" style="text;html=1;align=center;verticalAlign=middle;whiteSpace=wrap;rounded=0;" vertex="1" parent="1">
          <mxGeometry x="20" y="240" width="60" height="30" as="geometry" />
        </mxCell>
        <mxCell id="nZLA5djoOpEZxizHSnG1-25" value="Guitar" style="text;html=1;align=center;verticalAlign=middle;whiteSpace=wrap;rounded=0;" vertex="1" parent="1">
          <mxGeometry y="65" width="60" height="30" as="geometry" />
        </mxCell>
        <mxCell id="nZLA5djoOpEZxizHSnG1-26" value="Piano" style="text;html=1;align=center;verticalAlign=middle;whiteSpace=wrap;rounded=0;" vertex="1" parent="1">
          <mxGeometry y="110" width="60" height="30" as="geometry" />
        </mxCell>
        <mxCell id="nZLA5djoOpEZxizHSnG1-27" value="Trumpet" style="text;html=1;align=center;verticalAlign=middle;whiteSpace=wrap;rounded=0;" vertex="1" parent="1">
          <mxGeometry y="160" width="60" height="30" as="geometry" />
        </mxCell>
        <mxCell id="nZLA5djoOpEZxizHSnG1-29" value="" style="ellipse;whiteSpace=wrap;html=1;aspect=fixed;" vertex="1" parent="1">
          <mxGeometry x="162" y="342" width="30" height="30" as="geometry" />
        </mxCell>
        <mxCell id="nZLA5djoOpEZxizHSnG1-30" value="" style="ellipse;whiteSpace=wrap;html=1;aspect=fixed;" vertex="1" parent="1">
          <mxGeometry x="656" y="342" width="30" height="30" as="geometry" />
        </mxCell>
        <mxCell id="nZLA5djoOpEZxizHSnG1-31" value="" style="ellipse;whiteSpace=wrap;html=1;aspect=fixed;" vertex="1" parent="1">
          <mxGeometry x="289" y="342" width="30" height="30" as="geometry" />
        </mxCell>
        <mxCell id="nZLA5djoOpEZxizHSnG1-32" value="Loop" style="text;html=1;align=center;verticalAlign=middle;resizable=0;points=[];autosize=1;strokeColor=none;fillColor=none;" vertex="1" parent="1">
          <mxGeometry x="152" y="312" width="50" height="30" as="geometry" />
        </mxCell>
        <mxCell id="nZLA5djoOpEZxizHSnG1-33" value="Reverb" style="text;html=1;align=center;verticalAlign=middle;resizable=0;points=[];autosize=1;strokeColor=none;fillColor=none;" vertex="1" parent="1">
          <mxGeometry x="639" y="310" width="60" height="30" as="geometry" />
        </mxCell>
        <mxCell id="nZLA5djoOpEZxizHSnG1-34" value="Speed" style="text;html=1;align=center;verticalAlign=middle;resizable=0;points=[];autosize=1;strokeColor=none;fillColor=none;" vertex="1" parent="1">
          <mxGeometry x="274" y="310" width="60" height="30" as="geometry" />
        </mxCell>
        <mxCell id="nZLA5djoOpEZxizHSnG1-35" value="" style="ellipse;whiteSpace=wrap;html=1;aspect=fixed;" vertex="1" parent="1">
          <mxGeometry x="409" y="342" width="30" height="30" as="geometry" />
        </mxCell>
        <mxCell id="nZLA5djoOpEZxizHSnG1-36" value="Distortion" style="text;html=1;align=center;verticalAlign=middle;resizable=0;points=[];autosize=1;strokeColor=none;fillColor=none;" vertex="1" parent="1">
          <mxGeometry x="384" y="310" width="70" height="30" as="geometry" />
        </mxCell>
        <mxCell id="nZLA5djoOpEZxizHSnG1-37" value="" style="ellipse;whiteSpace=wrap;html=1;aspect=fixed;" vertex="1" parent="1">
          <mxGeometry x="529" y="340" width="30" height="30" as="geometry" />
        </mxCell>
        <mxCell id="nZLA5djoOpEZxizHSnG1-38" value="Delay" style="text;html=1;align=center;verticalAlign=middle;resizable=0;points=[];autosize=1;strokeColor=none;fillColor=none;" vertex="1" parent="1">
          <mxGeometry x="519" y="310" width="50" height="30" as="geometry" />
        </mxCell>
        <mxCell id="nZLA5djoOpEZxizHSnG1-39" value="" style="ellipse;whiteSpace=wrap;html=1;aspect=fixed;fillColor=#fad9d5;strokeColor=#ae4132;" vertex="1" parent="1">
          <mxGeometry x="202" y="110" width="12" height="12" as="geometry" />
        </mxCell>
        <mxCell id="nZLA5djoOpEZxizHSnG1-40" value="Record" style="text;html=1;align=center;verticalAlign=middle;resizable=0;points=[];autosize=1;strokeColor=none;fillColor=none;" vertex="1" parent="1">
          <mxGeometry x="214" y="101" width="60" height="30" as="geometry" />
        </mxCell>
        <mxCell id="nZLA5djoOpEZxizHSnG1-41" value="" style="triangle;whiteSpace=wrap;html=1;fillColor=#b0e3e6;strokeColor=#0e8088;" vertex="1" parent="1">
          <mxGeometry x="500" y="108" width="14" height="16" as="geometry" />
        </mxCell>
        <mxCell id="nZLA5djoOpEZxizHSnG1-42" value="Play" style="text;html=1;align=center;verticalAlign=middle;resizable=0;points=[];autosize=1;strokeColor=none;fillColor=none;" vertex="1" parent="1">
          <mxGeometry x="519" y="101" width="50" height="30" as="geometry" />
        </mxCell>
      </root>
    </mxGraphModel>
  </diagram>
</mxfile>
